<?xml version="1.0" encoding="utf-8"?>
<!-- Generator: Adobe Illustrator 15.1.0, SVG Export Plug-In . SVG Version: 6.00 Build 0)  -->
<!DOCTYPE svg PUBLIC "-//W3C//DTD SVG 1.1//EN" "http://www.w3.org/Graphics/SVG/1.1/DTD/svg11.dtd">
<svg version="1.1" xmlns="http://www.w3.org/2000/svg" xmlns:xlink="http://www.w3.org/1999/xlink" x="0px" y="0px" width="800px"
	 height="800px" viewBox="0 0 800 800" enable-background="new 0 0 800 800" xml:space="preserve">
<g id="Layer_3">
</g>
<g id="checkbox">
	
		<rect x="167.672" y="138.205" transform="matrix(0.7071 0.7071 -0.7071 0.7071 385.1308 -176.7875)" fill="#FFFFFF" width="476.59" height="476.59"/>
	
		<rect x="171.677" y="141.553" transform="matrix(0.7071 -0.7071 0.7071 0.7071 -146.856 397.1437)" width="468.58" height="468.58"/>
	<polygon fill="#FFFFFF" points="405.967,423.196 358.614,375.843 453.32,375.843 	"/>
	<polygon fill="#FFFFFF" points="311.26,423.196 263.907,375.843 358.614,375.843 	"/>
	<polygon fill="#FFFFFF" points="216.554,423.196 169.201,375.843 263.907,375.843 	"/>
	<polygon fill="#FFFFFF" points="121.554,423.196 74.201,375.843 168.907,375.843 	"/>
	<polygon fill="#FFFFFF" points="500.674,423.196 453.32,375.843 548.027,375.843 	"/>
	<polygon fill="#FFFFFF" points="595.381,423.196 548.027,375.843 642.734,375.843 	"/>
	<polygon fill="#FFFFFF" points="690.088,423.196 642.734,375.843 737.441,375.843 	"/>
	
		<rect x="372.482" y="437.035" transform="matrix(0.7071 0.7071 -0.7071 0.7071 451.6172 -149.2493)" fill="#FFFFFF" width="66.967" height="66.966"/>
	
		<rect x="277.776" y="437.035" transform="matrix(0.7071 0.7071 -0.7071 0.7071 423.8777 -82.2813)" fill="#FFFFFF" width="66.967" height="66.966"/>
	
		<rect x="277.776" y="531.74" transform="matrix(0.7071 0.7071 -0.7071 0.7071 490.845 -54.5422)" fill="#FFFFFF" width="66.967" height="66.966"/>
	
		<rect x="183.069" y="437.035" transform="matrix(0.7071 0.7071 -0.7071 0.7071 396.138 -15.3127)" fill="#FFFFFF" width="66.967" height="66.966"/>
	
		<rect x="467.189" y="437.035" transform="matrix(0.7071 0.7071 -0.7071 0.7071 479.3569 -216.218)" fill="#FFFFFF" width="66.967" height="66.966"/>
	
		<rect x="561.896" y="437.035" transform="matrix(0.7071 0.7071 -0.7071 0.7071 507.0967 -283.1866)" fill="#FFFFFF" width="66.967" height="66.966"/>
	
		<rect x="467.189" y="531.74" transform="matrix(0.7071 0.7071 -0.7071 0.7071 546.3242 -188.4788)" fill="#FFFFFF" width="66.967" height="66.966"/>
	
		<rect x="372.482" y="531.74" transform="matrix(0.7071 0.7071 -0.7071 0.7071 518.5845 -121.5101)" fill="#FFFFFF" width="66.967" height="66.966"/>
	
		<rect x="372.482" y="626.445" transform="matrix(0.7071 0.7071 -0.7071 0.7071 585.5518 -93.771)" fill="#FFFFFF" width="66.967" height="66.966"/>
</g>
<g id="text">
	<text transform="matrix(1 0 0 1 67.645 260.0449)" fill="#FFFFFF" font-family="'Rokkitt-Regular'" font-size="221.3526">SPIRO’S</text>
	<text transform="matrix(1 0 0 1 168.2007 349.0313)" fill="#FFFFFF" font-family="'Rokkitt-Regular'" font-size="96.0316">Pizza &amp; Pasta</text>
</g>
</svg>
