<?xml version="1.0" encoding="utf-8"?>
<!-- Generator: Adobe Illustrator 15.1.0, SVG Export Plug-In . SVG Version: 6.00 Build 0)  -->
<!DOCTYPE svg PUBLIC "-//W3C//DTD SVG 1.1//EN" "http://www.w3.org/Graphics/SVG/1.1/DTD/svg11.dtd">
<svg version="1.1" id="Layer_1" xmlns="http://www.w3.org/2000/svg" xmlns:xlink="http://www.w3.org/1999/xlink" x="0px" y="0px"
	 width="650px" height="650px" viewBox="0 0 650 650" enable-background="new 0 0 650 650" xml:space="preserve">
<g id="checkbox">
	
		<rect x="99.066" y="98.045" transform="matrix(0.7071 0.7071 -0.7071 0.7071 324.4782 -135.0015)" fill="#FFFFFF" width="452.269" height="452.268"/>
	
		<rect x="102.867" y="101.221" transform="matrix(0.7071 -0.7071 0.7071 0.7071 -133.5386 324.7193)" fill="#010101" width="444.667" height="444.668"/>
	<polygon fill="#FFFFFF" points="325.2,368.492 280.264,323.555 370.138,323.555 	"/>
	<polygon fill="#FFFFFF" points="235.324,368.492 190.388,323.555 280.264,323.555 	"/>
	<polygon fill="#FFFFFF" points="145.451,368.492 100.513,323.555 190.388,323.555 	"/>
	<polygon fill="#FFFFFF" points="55.296,368.492 10.359,323.555 100.234,323.555 	"/>
	<polygon fill="#FFFFFF" points="415.075,368.492 370.138,323.555 460.014,323.555 	"/>
	<polygon fill="#FFFFFF" points="504.952,368.492 460.014,323.555 549.89,323.555 	"/>
	<polygon fill="#FFFFFF" points="594.827,368.492 549.89,323.555 639.765,323.555 	"/>
	
		<rect x="293.429" y="381.628" transform="matrix(0.7071 0.7071 -0.7071 0.7071 387.5806 -108.8709)" fill="#FFFFFF" width="63.553" height="63.547"/>
	
		<rect x="203.554" y="381.627" transform="matrix(0.7071 0.7071 -0.7071 0.7071 361.2503 -45.3193)" fill="#FFFFFF" width="63.551" height="63.548"/>
	
		<rect x="203.555" y="471.501" transform="matrix(0.7071 0.7071 -0.7071 0.7071 424.793 -18.9982)" fill="#FFFFFF" width="63.549" height="63.548"/>
	
		<rect x="113.677" y="381.63" transform="matrix(0.7071 0.7071 -0.7071 0.7071 334.9354 18.2385)" fill="#FFFFFF" width="63.552" height="63.547"/>
	
		<rect x="383.313" y="381.627" transform="matrix(0.7071 0.7071 -0.7071 0.7071 413.9081 -172.429)" fill="#FFFFFF" width="63.55" height="63.548"/>
	
		<rect x="473.182" y="381.625" transform="matrix(0.7071 0.7071 -0.7071 0.7071 440.2231 -235.9774)" fill="#FFFFFF" width="63.551" height="63.549"/>
	
		<rect x="383.308" y="471.5" transform="matrix(0.7071 0.7071 -0.7071 0.7071 477.437 -146.1017)" fill="#FFFFFF" width="63.546" height="63.55"/>
	
		<rect x="293.43" y="471.501" transform="matrix(0.7071 0.7071 -0.7071 0.7071 451.1071 -82.5515)" fill="#FFFFFF" width="63.55" height="63.548"/>
	
		<rect x="293.431" y="561.375" transform="matrix(0.7071 0.7071 -0.7071 0.7071 514.6708 -56.2263)" fill="#FFFFFF" width="63.551" height="63.549"/>
</g>
<g id="text">
	<g enable-background="new    ">
		<path fill="#FFFFFF" d="M55.191,217.511c-11.625,0-21.745-3.59-30.361-10.77v8.923H10.984V175.97h13.847v11.898
			c4.104,5.333,8.514,9.3,13.232,11.897c4.718,2.6,10.29,3.897,16.718,3.897c3.488,0,6.631-0.495,9.437-1.487
			c2.803-0.991,5.195-2.341,7.18-4.052c1.982-1.708,3.502-3.726,4.565-6.052c1.058-2.323,1.589-4.854,1.589-7.59
			c0-3.828-0.872-6.99-2.615-9.487c-1.743-2.495-4.121-4.581-7.129-6.256c-3.009-1.676-6.512-3.061-10.513-4.156
			c-4-1.092-8.292-2.187-12.872-3.281c-4.651-1.026-9.062-2.324-13.232-3.898c-4.171-1.572-7.813-3.641-10.924-6.205
			c-3.111-2.564-5.574-5.76-7.385-9.59c-1.813-3.829-2.718-8.513-2.718-14.053c0-5.265,0.957-9.898,2.872-13.898
			c1.915-4,4.547-7.334,7.898-10.001c3.35-2.667,7.283-4.683,11.795-6.051s9.334-2.052,14.461-2.052
			c4.992,0,9.778,0.805,14.361,2.41c4.58,1.607,8.82,3.949,12.718,7.026v-7.591h13.847v33.541H74.27v-8.41
			c-3.146-4.308-6.685-7.555-10.617-9.744c-3.932-2.188-8.702-3.283-14.308-3.283c-3.83,0-7.18,0.447-10.052,1.334
			c-2.872,0.89-5.282,2.103-7.231,3.641c-1.949,1.539-3.42,3.352-4.41,5.437c-0.992,2.086-1.487,4.359-1.487,6.822
			c0,4.103,1.058,7.369,3.18,9.794c2.118,2.429,4.905,4.377,8.359,5.847c3.452,1.471,7.35,2.684,11.693,3.641
			c4.342,0.958,8.77,2.018,13.283,3.18c4.308,1.164,8.375,2.684,12.206,4.565c3.828,1.88,7.196,4.223,10.103,7.025
			c2.906,2.805,5.214,6.138,6.923,10.001c1.708,3.864,2.563,8.359,2.563,13.488c0,4.718-0.958,9.114-2.871,13.181
			c-1.915,4.069-4.582,7.59-8.001,10.565c-3.42,2.974-7.556,5.299-12.411,6.975C66.335,216.673,61.002,217.511,55.191,217.511z"/>
		<path fill="#FFFFFF" d="M107.296,203.664h15.487v-94.158h-15.487V97.402h54.669c8.206,0,14.924,1.113,20.155,3.334
			c5.231,2.223,9.367,5.061,12.411,8.513c3.041,3.454,5.145,7.299,6.308,11.539c1.162,4.242,1.743,8.344,1.743,12.309
			c0,6.839-1.198,12.462-3.591,16.873c-2.394,4.41-5.728,7.897-10,10.461c-4.275,2.564-9.37,4.343-15.283,5.333
			c-5.915,0.992-12.36,1.487-19.335,1.487h-14.975v36.412h16.205v12.001h-48.309V203.664z M139.195,156.483h18.257
			c5.539,0,10.137-0.598,13.795-1.795c3.658-1.195,6.546-2.854,8.667-4.975c2.119-2.119,3.606-4.615,4.462-7.487
			c0.854-2.872,1.282-5.984,1.282-9.334c0-7.453-2-13.214-6-17.284c-4-4.067-9.727-6.103-17.18-6.103h-23.283V156.483z"/>
		<path fill="#FFFFFF" d="M214.173,203.664h13.744v-94.158h-13.744V97.402h43.898v12.104h-13.539v94.158h13.539v12h-43.898V203.664z
			"/>
		<path fill="#FFFFFF" d="M271.919,203.664h16.719v-94.158h-16.719V97.402h56.515c6.771,0,12.599,0.736,17.488,2.206
			c4.89,1.471,8.924,3.539,12.104,6.205c3.18,2.667,5.539,5.881,7.077,9.642c1.539,3.762,2.31,7.932,2.31,12.514
			c0,8.07-2.155,14.719-6.463,19.949c-4.31,5.231-11.011,8.736-20.104,10.513l24.001,45.232h14.975v12.001h-25.95l-29.026-55.182
			h-19.796v43.182h16v12H271.92L271.919,203.664L271.919,203.664z M327.923,148.278c4.441,0,8.117-0.598,11.024-1.795
			c2.905-1.196,5.214-2.751,6.924-4.667c1.707-1.915,2.906-4.085,3.591-6.514c0.682-2.426,1.023-4.872,1.023-7.333
			c0-5.812-2.069-10.342-6.205-13.59c-4.138-3.246-9.83-4.872-17.076-4.872h-22.156v38.771L327.923,148.278L327.923,148.278z"/>
		<path fill="#FFFFFF" d="M386.384,156.688c0-8.547,1.403-16.547,4.208-24.001c2.803-7.453,6.82-13.932,12.051-19.436
			c5.232-5.504,11.625-9.829,19.182-12.976c7.555-3.144,16.051-4.718,25.487-4.718c9.505,0,18.033,1.59,25.59,4.769
			c7.556,3.18,13.968,7.523,19.233,13.026c5.264,5.506,9.299,11.985,12.104,19.438c2.803,7.453,4.205,15.42,4.205,23.898
			c0,8.48-1.402,16.429-4.205,23.847c-2.805,7.42-6.84,13.865-12.104,19.335c-5.266,5.472-11.678,9.795-19.233,12.975
			c-7.557,3.18-16.085,4.769-25.59,4.769c-9.506,0-18.019-1.573-25.541-4.718c-7.521-3.144-13.896-7.471-19.128-12.976
			c-5.231-5.503-9.248-11.95-12.051-19.334C387.786,173.202,386.384,165.236,386.384,156.688z M404.54,156.688
			c0,6.498,1.008,12.583,3.024,18.257c2.016,5.676,4.904,10.652,8.668,14.923c3.758,4.275,8.256,7.642,13.488,10.103
			c5.231,2.462,11.092,3.693,17.59,3.693c6.496,0,12.394-1.23,17.694-3.693c5.299-2.462,9.811-5.829,13.539-10.103
			c3.725-4.271,6.596-9.247,8.615-14.923c2.016-5.675,3.026-11.761,3.026-18.257c0-6.564-1.011-12.718-3.026-18.463
			c-2.02-5.743-4.891-10.752-8.615-15.026c-3.729-4.271-8.24-7.623-13.539-10.051c-5.301-2.427-11.197-3.642-17.694-3.642
			c-6.498,0-12.358,1.214-17.59,3.642c-5.232,2.428-9.73,5.779-13.488,10.051c-3.764,4.274-6.652,9.283-8.668,15.026
			C405.548,143.969,404.54,150.123,404.54,156.688z"/>
		<path fill="#FFFFFF" d="M523.519,97.403h22.258v21.643c0,3.897-0.375,7.369-1.128,10.412s-2,5.589-3.744,7.641
			c-1.742,2.051-4.034,3.609-6.87,4.667c-2.839,1.062-6.346,1.59-10.515,1.59v-8.924c2.12-0.478,3.914-1.077,5.387-1.794
			c1.469-0.719,2.648-1.676,3.537-2.872c0.89-1.195,1.521-2.667,1.898-4.41c0.376-1.744,0.565-3.848,0.565-6.308h-11.387V97.403
			H523.519z"/>
		<path fill="#FFFFFF" d="M606.497,217.511c-11.625,0-21.744-3.59-30.359-10.77v8.923H562.29V175.97h13.848v11.898
			c4.102,5.333,8.515,9.3,13.23,11.897c4.719,2.6,10.289,3.897,16.72,3.897c3.486,0,6.631-0.495,9.436-1.487
			c2.803-0.991,5.196-2.341,7.178-4.052c1.984-1.708,3.506-3.726,4.566-6.052c1.057-2.323,1.591-4.854,1.591-7.59
			c0-3.828-0.873-6.99-2.615-9.487c-1.745-2.495-4.122-4.581-7.13-6.256c-3.01-1.676-6.513-3.061-10.516-4.156
			c-4-1.092-8.289-2.187-12.87-3.281c-4.65-1.026-9.061-2.324-13.23-3.898c-4.171-1.572-7.812-3.641-10.925-6.205
			c-3.113-2.564-5.573-5.76-7.384-9.59c-1.813-3.829-2.718-8.513-2.718-14.053c0-5.265,0.957-9.898,2.871-13.898
			c1.913-4,4.546-7.334,7.897-10.001c3.349-2.667,7.283-4.683,11.795-6.051c4.514-1.368,9.335-2.052,14.463-2.052
			c4.99,0,9.777,0.805,14.359,2.41c4.58,1.607,8.82,3.949,12.719,7.026v-7.591h13.846v33.541h-13.846v-8.41
			c-3.145-4.308-6.686-7.555-10.618-9.744c-3.932-2.188-8.701-3.283-14.307-3.283c-3.83,0-7.179,0.447-10.051,1.334
			c-2.873,0.89-5.282,2.103-7.232,3.641c-1.949,1.539-3.42,3.352-4.409,5.437c-0.993,2.086-1.488,4.359-1.488,6.822
			c0,4.103,1.061,7.369,3.182,9.794c2.117,2.429,4.905,4.377,8.36,5.847c3.449,1.471,7.348,2.684,11.691,3.641
			c4.341,0.958,8.769,2.018,13.283,3.18c4.308,1.164,8.374,2.684,12.204,4.565c3.83,1.88,7.195,4.223,10.104,7.025
			c2.904,2.805,5.213,6.138,6.924,10.001c1.708,3.864,2.563,8.359,2.563,13.488c0,4.718-0.96,9.114-2.871,13.181
			c-1.914,4.069-4.582,7.59-8,10.565c-3.422,2.974-7.557,5.299-12.41,6.975C617.643,216.673,612.308,217.511,606.497,217.511z"/>
	</g>
	<g enable-background="new    ">
		<path fill="#FFFFFF" d="M99.367,294.906h6.72v-40.85h-6.72v-5.251h23.719c3.56,0,6.474,0.483,8.743,1.446
			c2.27,0.964,4.064,2.196,5.385,3.693c1.319,1.498,2.232,3.167,2.736,5.006c0.504,1.839,0.757,3.619,0.757,5.34
			c0,2.967-0.52,5.406-1.558,7.32c-1.039,1.914-2.485,3.425-4.339,4.538c-1.854,1.113-4.064,1.884-6.63,2.313
			c-2.566,0.431-5.362,0.646-8.388,0.646h-6.497v15.797h7.031v5.206H99.368L99.367,294.906L99.367,294.906z M113.206,274.437h7.92
			c2.403,0,4.397-0.259,5.986-0.778c1.587-0.519,2.84-1.24,3.76-2.158c0.919-0.92,1.564-2.002,1.936-3.248
			c0.372-1.247,0.557-2.595,0.557-4.05c0-3.232-0.867-5.733-2.604-7.498c-1.735-1.765-4.22-2.647-7.454-2.647h-10.101V274.437z"/>
		<path fill="#FFFFFF" d="M145.023,295.351h6.007v-26.12h-6.007v-4.939h12.637v31.059h6.052v4.762h-18.689V295.351z
			 M150.229,252.676c0-0.534,0.104-1.038,0.312-1.513c0.207-0.474,0.497-0.89,0.868-1.246c0.37-0.356,0.8-0.63,1.29-0.823
			c0.49-0.192,1.017-0.29,1.58-0.29c1.157,0,2.128,0.372,2.915,1.113c0.786,0.742,1.179,1.662,1.179,2.758
			c0,1.099-0.394,2.018-1.179,2.759c-0.787,0.742-1.758,1.113-2.915,1.113c-0.563,0-1.09-0.097-1.58-0.291
			c-0.49-0.191-0.92-0.466-1.29-0.823c-0.372-0.355-0.661-0.771-0.868-1.246C150.333,253.716,150.229,253.21,150.229,252.676z"/>
		<path fill="#FFFFFF" d="M198.599,300.112H167.45v-5.162l23.362-25.72h-16.197v6.986h-5.385v-11.925h29.502v5.429l-23.673,25.631
			h17.843v-7.52h5.697L198.599,300.112L198.599,300.112z"/>
		<path fill="#FFFFFF" d="M235.665,300.112h-31.148v-5.162l23.361-25.72h-16.197v6.986h-5.385v-11.925h29.502v5.429l-23.673,25.631
			h17.844v-7.52h5.695L235.665,300.112L235.665,300.112z"/>
		<path fill="#FFFFFF" d="M243.719,268.607c1.603-1.602,3.59-2.833,5.963-3.693c2.373-0.86,5.088-1.29,8.144-1.29
			c2.788,0,5.118,0.333,6.986,1c1.869,0.668,3.352,1.551,4.449,2.648c1.098,1.098,1.877,2.358,2.337,3.782
			c0.459,1.424,0.69,2.893,0.69,4.406v19.891h6.407v4.762h-12.327l-0.089-3.694c-1.186,0.86-2.299,1.579-3.337,2.157
			c-1.04,0.579-2.055,1.039-3.049,1.38c-0.995,0.34-1.995,0.584-3.004,0.733c-1.008,0.148-2.062,0.222-3.159,0.222
			c-1.869,0-3.553-0.29-5.051-0.867c-1.498-0.578-2.773-1.342-3.827-2.292c-1.054-0.949-1.854-2.054-2.403-3.315
			c-0.55-1.26-0.823-2.574-0.823-3.938c0-2.225,0.408-4.064,1.225-5.517c0.815-1.453,1.92-2.611,3.314-3.471
			c1.396-0.86,3.033-1.461,4.918-1.801c1.883-0.341,3.878-0.512,5.984-0.512c1.424,0,2.833,0.074,4.229,0.222
			c1.394,0.148,2.848,0.371,4.36,0.667v-4.317c0-1.247-0.216-2.306-0.646-3.182c-0.43-0.875-1.023-1.579-1.779-2.115
			c-0.756-0.534-1.641-0.927-2.647-1.179c-1.01-0.252-2.077-0.377-3.204-0.377c-2.047,0-3.895,0.334-5.54,1.001
			c-1.646,0.668-2.989,1.684-4.027,3.048L243.719,268.607z M265.656,284.447c-0.949-0.028-2.144-0.155-3.581-0.377
			c-1.44-0.222-2.959-0.334-4.562-0.334c-1.157,0-2.313,0.083-3.47,0.246c-1.158,0.164-2.189,0.482-3.094,0.957
			s-1.64,1.157-2.202,2.047c-0.564,0.89-0.846,2.063-0.846,3.515c0,0.772,0.148,1.506,0.444,2.202
			c0.297,0.697,0.734,1.297,1.313,1.802c0.578,0.504,1.282,0.905,2.114,1.201c0.83,0.297,1.794,0.446,2.892,0.446
			c0.98,0,1.973-0.089,2.982-0.267c1.009-0.179,1.995-0.437,2.958-0.779c0.965-0.34,1.877-0.756,2.738-1.246
			c0.858-0.49,1.631-1.046,2.313-1.669L265.656,284.447L265.656,284.447z"/>
		<path fill="#FFFFFF" d="M333.339,294.995c-2.403,2.046-4.768,3.552-7.097,4.517s-4.799,1.445-7.41,1.445
			c-2.64,0-5.088-0.393-7.341-1.178c-2.255-0.786-4.205-1.862-5.852-3.225c-1.646-1.365-2.938-2.982-3.872-4.851
			c-0.935-1.869-1.401-3.886-1.401-6.052c0-3.589,1.149-6.638,3.448-9.145c2.299-2.507,5.688-4.576,10.167-6.208
			c-1.631-2.077-2.907-3.998-3.825-5.763c-0.92-1.764-1.38-3.565-1.38-5.406c0-1.542,0.334-2.988,1.001-4.338
			c0.668-1.35,1.58-2.521,2.736-3.515c1.157-0.994,2.515-1.781,4.072-2.358c1.559-0.578,3.227-0.867,5.007-0.867
			c1.75,0,3.381,0.274,4.895,0.822c1.514,0.549,2.832,1.307,3.96,2.27c1.127,0.964,2.01,2.091,2.648,3.381
			c0.638,1.29,0.957,2.692,0.957,4.205c0,1.454-0.2,2.82-0.602,4.095c-0.399,1.273-1.039,2.484-1.914,3.625
			c-0.876,1.143-2.01,2.21-3.403,3.204c-1.396,0.994-3.088,1.936-5.072,2.826l10.679,12.86c1.126-1.542,2.083-3.225,2.869-5.05
			c0.785-1.825,1.415-3.863,1.891-6.118h10.235v5.651h-5.74c-0.771,2.344-1.602,4.331-2.493,5.962
			c-0.89,1.633-1.958,3.101-3.204,4.405l3.249,4.361h8.188v5.563h-11.569L333.339,294.995z M317.364,274.614
			c-6.764,2.374-10.146,5.904-10.146,10.592c0,1.274,0.304,2.499,0.911,3.67c0.609,1.172,1.453,2.203,2.538,3.093
			c1.082,0.89,2.381,1.602,3.893,2.137c1.513,0.534,3.175,0.801,4.983,0.801c1.899,0,3.701-0.356,5.408-1.068
			c1.705-0.711,3.359-1.869,4.96-3.47L317.364,274.614z M319.856,268.074c2.788-1.453,4.857-2.9,6.207-4.339
			c1.35-1.438,2.025-3.137,2.025-5.095c0-1.602-0.615-2.84-1.847-3.716c-1.231-0.875-2.782-1.313-4.649-1.313
			c-1.959,0-3.545,0.445-4.762,1.334s-1.824,2.181-1.824,3.871c0,1.246,0.408,2.566,1.225,3.961
			C317.046,264.172,318.254,265.938,319.856,268.074z"/>
		<path fill="#FFFFFF" d="M373.255,294.906h6.719v-40.85h-6.719v-5.251h23.717c3.56,0,6.475,0.483,8.743,1.446
			c2.271,0.964,4.065,2.196,5.386,3.693c1.32,1.498,2.232,3.167,2.737,5.006c0.503,1.839,0.756,3.619,0.756,5.34
			c0,2.967-0.52,5.406-1.558,7.32c-1.039,1.914-2.485,3.425-4.339,4.538c-1.854,1.113-4.064,1.884-6.629,2.313
			c-2.568,0.431-5.362,0.646-8.389,0.646h-6.498v15.797h7.031v5.206h-20.958V294.906z M387.093,274.437h7.922
			c2.402,0,4.397-0.259,5.985-0.778c1.586-0.519,2.84-1.24,3.76-2.158c0.918-0.919,1.564-2.002,1.936-3.248
			c0.372-1.247,0.557-2.595,0.557-4.05c0-3.232-0.867-5.733-2.604-7.498c-1.734-1.765-4.22-2.647-7.453-2.647h-10.103V274.437z"/>
		<path fill="#FFFFFF" d="M420.823,268.607c1.601-1.602,3.59-2.833,5.962-3.693c2.374-0.86,5.087-1.29,8.144-1.29
			c2.79,0,5.118,0.333,6.986,1c1.87,0.668,3.353,1.551,4.45,2.648c1.096,1.098,1.876,2.358,2.334,3.782
			c0.461,1.424,0.691,2.893,0.691,4.406v19.891h6.408v4.762h-12.327l-0.088-3.694c-1.188,0.86-2.299,1.579-3.337,2.157
			c-1.041,0.579-2.056,1.039-3.05,1.38c-0.993,0.34-1.996,0.584-3.002,0.733c-1.01,0.148-2.063,0.222-3.16,0.222
			c-1.87,0-3.553-0.29-5.051-0.867c-1.498-0.578-2.774-1.342-3.827-2.292c-1.054-0.949-1.854-2.054-2.402-3.315
			c-0.548-1.26-0.823-2.574-0.823-3.938c0-2.225,0.409-4.064,1.223-5.517c0.816-1.453,1.922-2.611,3.316-3.471
			c1.396-0.86,3.033-1.461,4.918-1.801c1.884-0.341,3.878-0.512,5.985-0.512c1.424,0,2.832,0.074,4.228,0.222
			c1.393,0.148,2.847,0.371,4.36,0.667v-4.317c0-1.247-0.215-2.306-0.646-3.182c-0.431-0.875-1.022-1.579-1.779-2.115
			c-0.757-0.534-1.641-0.927-2.649-1.179c-1.008-0.251-2.075-0.377-3.201-0.377c-2.049,0-3.896,0.334-5.541,1.001
			c-1.647,0.668-2.99,1.684-4.027,3.048L420.823,268.607z M442.761,284.447c-0.949-0.028-2.143-0.155-3.582-0.377
			c-1.438-0.222-2.958-0.334-4.561-0.334c-1.157,0-2.313,0.083-3.473,0.246c-1.156,0.164-2.186,0.482-3.091,0.957
			c-0.906,0.475-1.64,1.157-2.203,2.047s-0.847,2.063-0.847,3.515c0,0.772,0.148,1.506,0.445,2.202
			c0.298,0.697,0.734,1.297,1.313,1.802c0.578,0.504,1.284,0.905,2.115,1.201c0.83,0.297,1.794,0.446,2.891,0.446
			c0.979,0,1.974-0.089,2.983-0.267c1.008-0.179,1.994-0.437,2.959-0.779c0.963-0.34,1.876-0.756,2.736-1.246
			c0.861-0.49,1.632-1.046,2.314-1.669v-7.743H442.761z"/>
		<path fill="#FFFFFF" d="M459.269,288.409h5.919v2.358c0.385,0.742,0.83,1.409,1.335,2.001c0.503,0.594,1.118,1.105,1.847,1.536
			c0.727,0.43,1.578,0.764,2.558,1.001c0.979,0.237,2.119,0.355,3.426,0.355c2.609,0,4.619-0.445,6.03-1.334
			c1.409-0.89,2.113-2.181,2.113-3.871c0-0.95-0.193-1.714-0.577-2.292c-0.385-0.579-0.927-1.047-1.624-1.403
			c-0.696-0.356-1.528-0.63-2.494-0.823c-0.963-0.192-2.038-0.378-3.224-0.556c-1.84-0.267-3.672-0.608-5.496-1.024
			c-1.823-0.415-3.471-1.029-4.939-1.846c-1.467-0.815-2.662-1.898-3.582-3.249c-0.919-1.35-1.379-3.093-1.379-5.229
			c0-1.453,0.311-2.817,0.934-4.093c0.623-1.275,1.514-2.381,2.672-3.315c1.156-0.934,2.543-1.668,4.159-2.203
			c1.618-0.534,3.435-0.8,5.451-0.8c1.78,0,3.456,0.318,5.028,0.956c1.57,0.639,2.938,1.432,4.093,2.381v-2.669h5.741v11.392h-5.741
			v-2.982c-2.107-2.551-5.059-3.827-8.854-3.827c-2.226,0-3.982,0.439-5.273,1.313c-1.292,0.876-1.937,2.069-1.937,3.583
			c0,0.978,0.342,1.757,1.024,2.335c0.682,0.58,1.581,1.053,2.692,1.425c1.111,0.373,2.387,0.683,3.827,0.934
			c1.438,0.253,2.899,0.528,4.382,0.823c1.481,0.296,2.945,0.675,4.382,1.134c1.44,0.46,2.717,1.09,3.828,1.892
			c1.111,0.801,2.01,1.817,2.691,3.048c0.683,1.231,1.023,2.767,1.023,4.605c0,1.633-0.334,3.124-1.002,4.473
			c-0.666,1.351-1.615,2.5-2.846,3.449c-1.232,0.95-2.723,1.691-4.473,2.226c-1.753,0.534-3.709,0.801-5.875,0.801
			c-2.046,0-3.879-0.237-5.494-0.712c-1.618-0.475-3.093-1.246-4.428-2.314v2.226h-5.92v-11.705H459.269z"/>
		<path fill="#FFFFFF" d="M493.399,264.291h5.517V252.81l6.719-1.424v12.905h7.699v4.939h-7.699v18.021
			c0,1.365,0.023,2.551,0.066,3.561c0.045,1.008,0.186,1.845,0.424,2.513c0.236,0.668,0.607,1.172,1.111,1.513
			c0.504,0.34,1.23,0.512,2.182,0.512h5.252v4.762h-6.141c-2.316,0-4.118-0.34-5.408-1.023c-1.289-0.682-2.248-1.624-2.871-2.826
			c-0.621-1.203-1-2.611-1.132-4.228c-0.136-1.617-0.202-3.375-0.202-5.274v-17.533h-5.517V264.291z"/>
		<path fill="#FFFFFF" d="M519.876,268.607c1.603-1.602,3.589-2.833,5.963-3.693c2.373-0.86,5.088-1.29,8.145-1.29
			c2.788,0,5.116,0.333,6.986,1c1.867,0.668,3.351,1.551,4.449,2.648c1.097,1.098,1.877,2.358,2.336,3.782
			c0.458,1.424,0.689,2.893,0.689,4.406v19.891h6.408v4.762h-12.326l-0.09-3.694c-1.186,0.86-2.297,1.579-3.338,2.157
			c-1.038,0.579-2.053,1.039-3.047,1.38c-0.994,0.34-1.997,0.584-3.004,0.733c-1.009,0.148-2.062,0.222-3.158,0.222
			c-1.869,0-3.554-0.29-5.051-0.867c-1.498-0.578-2.775-1.342-3.828-2.292c-1.052-0.949-1.854-2.054-2.402-3.315
			c-0.551-1.26-0.821-2.574-0.821-3.938c0-2.225,0.408-4.064,1.223-5.517c0.815-1.453,1.919-2.611,3.313-3.471
			c1.396-0.86,3.033-1.461,4.919-1.801c1.884-0.341,3.879-0.512,5.984-0.512c1.426,0,2.834,0.074,4.227,0.222
			c1.395,0.148,2.85,0.371,4.361,0.667v-4.317c0-1.247-0.215-2.306-0.645-3.182c-0.43-0.875-1.023-1.579-1.779-2.115
			c-0.758-0.534-1.641-0.927-2.648-1.179c-1.007-0.251-2.076-0.377-3.205-0.377c-2.045,0-3.893,0.334-5.539,1.001
			c-1.646,0.668-2.988,1.684-4.025,3.048L519.876,268.607z M541.814,284.447c-0.948-0.028-2.145-0.155-3.582-0.377
			s-2.959-0.334-4.56-0.334c-1.159,0-2.315,0.083-3.472,0.246c-1.157,0.164-2.19,0.482-3.095,0.957s-1.639,1.157-2.2,2.047
			c-0.565,0.89-0.847,2.063-0.847,3.515c0,0.772,0.148,1.506,0.445,2.202c0.298,0.697,0.734,1.297,1.313,1.802
			c0.577,0.504,1.281,0.905,2.113,1.201c0.83,0.297,1.796,0.446,2.893,0.446c0.979,0,1.973-0.089,2.983-0.267
			c1.006-0.179,1.994-0.437,2.958-0.779c0.964-0.34,1.876-0.756,2.737-1.246c0.859-0.49,1.631-1.046,2.313-1.669L541.814,284.447
			L541.814,284.447z"/>
	</g>
</g>
</svg>
