<?xml version="1.0" encoding="utf-8"?>
<!-- Generator: Adobe Illustrator 15.1.0, SVG Export Plug-In . SVG Version: 6.00 Build 0)  -->
<!DOCTYPE svg PUBLIC "-//W3C//DTD SVG 1.1//EN" "http://www.w3.org/Graphics/SVG/1.1/DTD/svg11.dtd">
<svg version="1.1" id="Layer_1" xmlns="http://www.w3.org/2000/svg" xmlns:xlink="http://www.w3.org/1999/xlink" x="0px" y="0px"
	 width="800px" height="800px" viewBox="0 0 800 800" enable-background="new 0 0 800 800" xml:space="preserve">
<g id="Layer_3">
</g>
<g id="checkbox">
	
		<rect x="167.674" y="138.202" transform="matrix(-0.7071 -0.7071 0.7071 -0.7071 426.8068 929.7784)" fill="#FFFFFF" width="476.586" height="476.585"/>
	
		<rect x="171.674" y="141.555" transform="matrix(-0.7071 0.7071 -0.7071 -0.7071 958.7815 354.5461)" width="468.575" height="468.576"/>
	<polygon fill="#FFFFFF" points="405.967,423.196 358.614,375.843 453.32,375.843 	"/>
	<polygon fill="#FFFFFF" points="311.26,423.196 263.907,375.843 358.614,375.843 	"/>
	<polygon fill="#FFFFFF" points="216.554,423.196 169.201,375.843 263.907,375.843 	"/>
	<polygon fill="#FFFFFF" points="121.554,423.196 74.201,375.843 168.907,375.843 	"/>
	<polygon fill="#FFFFFF" points="500.674,423.196 453.32,375.843 548.027,375.843 	"/>
	<polygon fill="#FFFFFF" points="595.381,423.196 548.027,375.843 642.734,375.843 	"/>
	<polygon fill="#FFFFFF" points="690.088,423.196 642.734,375.843 737.441,375.843 	"/>
	
		<rect x="372.489" y="437.03" transform="matrix(-0.7071 -0.7071 0.7071 -0.7071 360.3355 1090.2803)" fill="#FFFFFF" width="66.967" height="66.965"/>
	
		<rect x="277.783" y="437.031" transform="matrix(-0.7071 -0.7071 0.7071 -0.7071 198.6614 1023.3146)" fill="#FFFFFF" width="66.967" height="66.965"/>
	
		<rect x="277.784" y="531.736" transform="matrix(-0.7071 -0.7071 0.7071 -0.7071 131.6965 1184.9871)" fill="#FFFFFF" width="66.967" height="66.965"/>
	
		<rect x="183.076" y="437.033" transform="matrix(-0.7071 -0.7071 0.7071 -0.7071 36.985 956.35)" fill="#FFFFFF" width="66.967" height="66.965"/>
	
		<rect x="467.196" y="437.028" transform="matrix(-0.7071 -0.7071 0.7071 -0.7071 522.0182 1157.2463)" fill="#FFFFFF" width="66.966" height="66.966"/>
	
		<rect x="561.903" y="437.027" transform="matrix(-0.7071 -0.7071 0.7071 -0.7071 683.6876 1224.2112)" fill="#FFFFFF" width="66.967" height="66.965"/>
	
		<rect x="467.198" y="531.733" transform="matrix(-0.7071 -0.7071 0.7071 -0.7071 455.0471 1318.9192)" fill="#FFFFFF" width="66.965" height="66.966"/>
	
		<rect x="372.49" y="531.735" transform="matrix(-0.7071 -0.7071 0.7071 -0.7071 293.3705 1251.9526)" fill="#FFFFFF" width="66.967" height="66.965"/>
	
		<rect x="372.492" y="626.44" transform="matrix(-0.7071 -0.7071 0.7071 -0.7071 226.4073 1413.6257)" fill="#FFFFFF" width="66.967" height="66.965"/>
</g>
<g id="text">
	<g enable-background="new    ">
		<path fill="#FFFFFF" d="M124.604,261.99c-12.25,0-22.914-3.782-31.993-11.349v9.403H78.021v-41.828h14.591v12.538
			c4.324,5.62,8.971,9.8,13.943,12.537c4.972,2.739,10.844,4.107,17.617,4.107c3.675,0,6.988-0.521,9.944-1.567
			c2.954-1.044,5.475-2.467,7.566-4.27c2.089-1.8,3.691-3.926,4.81-6.377c1.116-2.448,1.675-5.115,1.675-7.998
			c0-4.034-0.919-7.366-2.756-9.997c-1.837-2.63-4.342-4.827-7.512-6.593c-3.171-1.766-6.863-3.225-11.078-4.378
			c-4.215-1.151-8.738-2.305-13.564-3.458c-4.901-1.081-9.548-2.449-13.943-4.107c-4.396-1.657-8.233-3.837-11.511-6.539
			c-3.279-2.702-5.874-6.069-7.782-10.105c-1.91-4.035-2.864-8.971-2.864-14.808c0-5.548,1.008-10.43,3.026-14.646
			c2.017-4.215,4.791-7.728,8.322-10.538c3.53-2.81,7.674-4.935,12.43-6.376c4.755-1.441,9.835-2.162,15.239-2.162
			c5.259,0,10.303,0.848,15.132,2.54c4.826,1.693,9.295,4.161,13.402,7.403v-7.998h14.591v35.343h-14.591v-8.862
			c-3.315-4.539-7.044-7.961-11.187-10.268c-4.144-2.306-9.17-3.459-15.077-3.459c-4.036,0-7.566,0.47-10.592,1.405
			c-3.026,0.938-5.566,2.216-7.62,3.837s-3.604,3.531-4.647,5.729c-1.045,2.198-1.567,4.593-1.567,7.188
			c0,4.323,1.116,7.765,3.351,10.321c2.232,2.559,5.169,4.612,8.809,6.161c3.638,1.55,7.745,2.828,12.321,3.837
			c4.575,1.01,9.241,2.126,13.997,3.351c4.539,1.226,8.825,2.828,12.862,4.81c4.034,1.982,7.583,4.45,10.646,7.403
			c3.062,2.955,5.494,6.468,7.295,10.538c1.8,4.072,2.702,8.809,2.702,14.213c0,4.972-1.01,9.603-3.026,13.889
			c-2.018,4.288-4.828,7.998-8.431,11.133c-3.604,3.134-7.962,5.584-13.078,7.35C136.348,261.107,130.728,261.99,124.604,261.99z"/>
		<path fill="#FFFFFF" d="M179.51,247.399h16.32v-99.22h-16.32v-12.754h57.608c8.646,0,15.726,1.172,21.238,3.513
			c5.512,2.343,9.871,5.333,13.078,8.971c3.205,3.64,5.421,7.692,6.647,12.159c1.224,4.469,1.837,8.792,1.837,12.971
			c0,7.206-1.262,13.132-3.783,17.779c-2.523,4.647-6.036,8.322-10.538,11.024c-4.504,2.702-9.873,4.576-16.104,5.62
			c-6.233,1.045-13.024,1.567-20.374,1.567h-15.78v38.369h17.077v12.646H179.51V247.399z M213.124,197.682h19.239
			c5.836,0,10.682-0.63,14.537-1.892c3.854-1.26,6.898-3.008,9.133-5.242c2.232-2.232,3.8-4.863,4.702-7.89
			c0.9-3.026,1.351-6.305,1.351-9.836c0-7.853-2.108-13.924-6.323-18.212c-4.215-4.286-10.25-6.431-18.104-6.431h-24.535V197.682z"
			/>
		<path fill="#FFFFFF" d="M292.132,247.399h14.483v-99.22h-14.483v-12.754h46.259v12.754h-14.267v99.22h14.267v12.646h-46.259
			V247.399z"/>
		<path fill="#FFFFFF" d="M352.982,247.399H370.6v-99.22h-17.618v-12.754h59.553c7.135,0,13.276,0.775,18.429,2.324
			c5.151,1.55,9.403,3.729,12.754,6.539c3.351,2.81,5.837,6.197,7.458,10.159c1.621,3.964,2.432,8.359,2.432,13.187
			c0,8.503-2.27,15.51-6.81,21.021c-4.54,5.513-11.603,9.206-21.185,11.079l25.292,47.664h15.78v12.646H439.34l-30.587-58.148
			h-20.86v45.503h16.861v12.646h-51.771V247.399z M411.996,189.035c4.682,0,8.555-0.63,11.618-1.892
			c3.062-1.26,5.493-2.899,7.296-4.918c1.8-2.017,3.062-4.305,3.783-6.863c0.719-2.557,1.08-5.134,1.08-7.728
			c0-6.124-2.18-10.898-6.539-14.321c-4.36-3.421-10.359-5.134-17.996-5.134h-23.345v40.855H411.996z"/>
		<path fill="#FFFFFF" d="M473.602,197.897c0-9.006,1.477-17.437,4.432-25.291c2.953-7.853,7.188-14.681,12.699-20.481
			c5.514-5.8,12.25-10.357,20.213-13.673c7.961-3.313,16.914-4.972,26.857-4.972c10.016,0,19.004,1.676,26.967,5.025
			c7.961,3.351,14.717,7.928,20.266,13.727c5.547,5.802,9.799,12.629,12.754,20.482c2.953,7.854,4.432,16.249,4.432,25.183
			c0,8.936-1.479,17.312-4.432,25.129c-2.955,7.819-7.207,14.61-12.754,20.374c-5.549,5.766-12.305,10.321-20.266,13.672
			c-7.963,3.351-16.951,5.026-26.967,5.026s-18.986-1.658-26.912-4.972c-7.928-3.313-14.645-7.872-20.158-13.673
			c-5.512-5.799-9.746-12.592-12.699-20.373C475.078,215.299,473.602,206.905,473.602,197.897z M492.732,197.897
			c0,6.847,1.063,13.259,3.189,19.239c2.123,5.981,5.168,11.224,9.133,15.726c3.961,4.504,8.699,8.052,14.213,10.646
			c5.512,2.594,11.689,3.891,18.535,3.891s13.061-1.297,18.645-3.891c5.584-2.595,10.338-6.143,14.268-10.646
			c3.926-4.502,6.951-9.744,9.078-15.726c2.125-5.98,3.189-12.393,3.189-19.239c0-6.917-1.064-13.402-3.189-19.455
			c-2.127-6.052-5.152-11.33-9.078-15.834c-3.93-4.502-8.684-8.033-14.268-10.592c-5.584-2.557-11.799-3.837-18.645-3.837
			s-13.023,1.28-18.535,3.837c-5.514,2.559-10.252,6.09-14.213,10.592c-3.965,4.504-7.01,9.782-9.133,15.834
			C493.795,184.495,492.732,190.98,492.732,197.897z"/>
		<path fill="#FFFFFF" d="M618.107,135.426h23.455v22.806c0,4.107-0.396,7.765-1.189,10.971c-0.793,3.207-2.107,5.89-3.945,8.052
			c-1.836,2.161-4.252,3.802-7.24,4.918c-2.992,1.118-6.686,1.675-11.08,1.675v-9.403c2.234-0.503,4.125-1.135,5.676-1.891
			c1.549-0.757,2.791-1.766,3.729-3.026c0.936-1.26,1.602-2.811,2-4.647c0.395-1.838,0.594-4.054,0.594-6.647h-11.998V135.426z"/>
		<path fill="#FFFFFF" d="M705.547,261.99c-12.25,0-22.914-3.782-31.992-11.349v9.403h-14.592v-41.828h14.592v12.538
			c4.322,5.62,8.971,9.8,13.941,12.537c4.973,2.739,10.844,4.107,17.619,4.107c3.674,0,6.988-0.521,9.943-1.567
			c2.953-1.044,5.475-2.467,7.564-4.27c2.09-1.8,3.693-3.926,4.811-6.377c1.115-2.448,1.676-5.115,1.676-7.998
			c0-4.034-0.92-7.366-2.756-9.997c-1.838-2.63-4.342-4.827-7.512-6.593c-3.172-1.766-6.863-3.225-11.08-4.378
			c-4.215-1.151-8.736-2.305-13.564-3.458c-4.9-1.081-9.547-2.449-13.941-4.107c-4.396-1.657-8.232-3.837-11.512-6.539
			s-5.873-6.069-7.781-10.105c-1.91-4.035-2.863-8.971-2.863-14.808c0-5.548,1.008-10.43,3.025-14.646
			c2.016-4.215,4.791-7.728,8.322-10.538c3.529-2.81,7.674-4.935,12.43-6.376s9.836-2.162,15.24-2.162
			c5.258,0,10.303,0.848,15.131,2.54c4.826,1.693,9.295,4.161,13.402,7.403v-7.998h14.59v35.343h-14.59v-8.862
			c-3.314-4.539-7.045-7.961-11.188-10.268c-4.145-2.306-9.17-3.459-15.076-3.459c-4.037,0-7.566,0.47-10.592,1.405
			c-3.027,0.938-5.566,2.216-7.621,3.837c-2.053,1.621-3.604,3.531-4.646,5.729c-1.047,2.198-1.568,4.593-1.568,7.188
			c0,4.323,1.117,7.765,3.352,10.321c2.232,2.559,5.168,4.612,8.809,6.161c3.637,1.55,7.744,2.828,12.32,3.837
			c4.576,1.01,9.242,2.126,13.998,3.351c4.539,1.226,8.824,2.828,12.861,4.81c4.035,1.982,7.582,4.45,10.646,7.403
			c3.061,2.955,5.492,6.468,7.295,10.538c1.801,4.072,2.701,8.809,2.701,14.213c0,4.972-1.01,9.603-3.025,13.889
			c-2.018,4.288-4.828,7.998-8.43,11.133c-3.605,3.134-7.963,5.584-13.078,7.35C717.291,261.107,711.67,261.99,705.547,261.99z"/>
	</g>
	<g enable-background="new    ">
		<path fill="#FFFFFF" d="M171.155,343.545h7.081V300.5h-7.081v-5.533h24.993c3.751,0,6.822,0.508,9.214,1.523
			c2.392,1.017,4.282,2.314,5.674,3.893c1.391,1.578,2.352,3.337,2.884,5.274c0.531,1.939,0.797,3.814,0.797,5.627
			c0,3.127-0.547,5.697-1.641,7.714c-1.094,2.017-2.619,3.61-4.572,4.782c-1.954,1.173-4.283,1.986-6.987,2.438
			c-2.704,0.454-5.65,0.681-8.839,0.681h-6.846v16.646h7.409v5.486h-22.085V343.545z M185.738,321.976h8.346
			c2.532,0,4.634-0.273,6.307-0.82c1.672-0.547,2.993-1.306,3.962-2.274c0.969-0.969,1.648-2.11,2.04-3.423
			c0.391-1.313,0.586-2.735,0.586-4.268c0-3.406-0.914-6.041-2.743-7.9c-1.829-1.86-4.447-2.79-7.854-2.79h-10.644V321.976z"/>
		<path fill="#FFFFFF" d="M219.265,344.014h6.33v-27.524h-6.33v-5.205h13.317v32.729h6.377v5.018h-19.694V344.014z M224.751,299.046
			c0-0.563,0.109-1.094,0.328-1.594c0.218-0.5,0.523-0.938,0.914-1.313c0.391-0.375,0.844-0.664,1.36-0.867
			c0.516-0.203,1.071-0.305,1.665-0.305c1.219,0,2.243,0.391,3.072,1.172c0.828,0.782,1.242,1.751,1.242,2.907
			c0,1.157-0.415,2.126-1.242,2.907c-0.829,0.782-1.853,1.173-3.072,1.173c-0.594,0-1.148-0.102-1.665-0.306
			c-0.516-0.202-0.969-0.492-1.36-0.867c-0.391-0.375-0.696-0.813-0.914-1.313C224.86,300.141,224.751,299.608,224.751,299.046z"/>
		<path fill="#FFFFFF" d="M275.721,349.031h-32.823v-5.439l24.617-27.103h-17.068v7.362h-5.674v-12.567h31.088v5.721l-24.946,27.009
			h18.803v-7.924h6.002V349.031z"/>
		<path fill="#FFFFFF" d="M314.78,349.031h-32.823v-5.439l24.617-27.103h-17.068v7.362h-5.674v-12.567h31.088v5.721l-24.946,27.009
			h18.803v-7.924h6.002V349.031z"/>
		<path fill="#FFFFFF" d="M323.267,315.833c1.688-1.688,3.782-2.985,6.283-3.892c2.501-0.907,5.361-1.36,8.581-1.36
			c2.938,0,5.393,0.352,7.362,1.055c1.97,0.704,3.532,1.634,4.689,2.79c1.156,1.157,1.977,2.485,2.462,3.986
			c0.484,1.5,0.727,3.048,0.727,4.642v20.96h6.752v5.018h-12.989l-0.094-3.892c-1.25,0.906-2.423,1.664-3.517,2.273
			c-1.095,0.61-2.165,1.095-3.212,1.454c-1.048,0.359-2.103,0.617-3.165,0.773c-1.063,0.156-2.173,0.234-3.33,0.234
			c-1.969,0-3.744-0.305-5.322-0.914c-1.579-0.609-2.923-1.414-4.033-2.415c-1.11-1-1.954-2.164-2.532-3.493
			c-0.579-1.328-0.867-2.712-0.867-4.149c0-2.345,0.429-4.283,1.29-5.814c0.859-1.531,2.023-2.751,3.493-3.658
			c1.469-0.906,3.196-1.539,5.181-1.898c1.985-0.359,4.087-0.539,6.307-0.539c1.5,0,2.985,0.078,4.455,0.234
			c1.469,0.156,3.001,0.391,4.595,0.703v-4.549c0-1.313-0.227-2.43-0.68-3.353c-0.453-0.922-1.078-1.664-1.875-2.228
			c-0.797-0.563-1.728-0.977-2.79-1.242c-1.063-0.266-2.188-0.398-3.376-0.398c-2.157,0-4.103,0.352-5.838,1.055
			c-1.735,0.704-3.15,1.774-4.244,3.212L323.267,315.833z M346.384,332.525c-1.001-0.03-2.259-0.164-3.775-0.398
			c-1.517-0.234-3.118-0.352-4.806-0.352c-1.219,0-2.438,0.087-3.657,0.258c-1.219,0.173-2.306,0.509-3.259,1.009
			s-1.728,1.219-2.321,2.156c-0.594,0.938-0.891,2.174-0.891,3.705c0,0.813,0.156,1.587,0.469,2.32
			c0.312,0.735,0.773,1.368,1.383,1.899c0.61,0.532,1.352,0.954,2.228,1.266c0.875,0.313,1.891,0.47,3.048,0.47
			c1.032,0,2.079-0.094,3.142-0.282c1.063-0.188,2.102-0.46,3.118-0.82c1.016-0.358,1.977-0.797,2.884-1.313
			c0.906-0.516,1.719-1.103,2.438-1.759V332.525z"/>
		<path fill="#FFFFFF" d="M417.705,343.639c-2.533,2.157-5.025,3.744-7.479,4.76s-5.057,1.523-7.808,1.523
			c-2.782,0-5.361-0.414-7.736-1.242c-2.376-0.828-4.431-1.962-6.166-3.399c-1.735-1.438-3.095-3.142-4.08-5.111
			c-0.985-1.97-1.477-4.095-1.477-6.377c0-3.782,1.211-6.994,3.634-9.636c2.422-2.642,5.994-4.822,10.714-6.542
			c-1.719-2.188-3.064-4.212-4.032-6.072c-0.969-1.859-1.454-3.758-1.454-5.697c0-1.625,0.352-3.148,1.055-4.571
			c0.704-1.422,1.665-2.656,2.884-3.704c1.219-1.047,2.649-1.876,4.291-2.485s3.4-0.914,5.276-0.914
			c1.844,0,3.563,0.289,5.157,0.867s2.985,1.376,4.173,2.392s2.118,2.203,2.791,3.563c0.672,1.359,1.008,2.837,1.008,4.431
			c0,1.532-0.211,2.971-0.633,4.314s-1.095,2.618-2.017,3.821c-0.923,1.204-2.118,2.329-3.587,3.376
			c-1.471,1.048-3.252,2.04-5.346,2.978l11.254,13.552c1.188-1.625,2.195-3.399,3.024-5.322c0.827-1.923,1.492-4.071,1.993-6.447
			h10.784v5.955h-6.049c-0.813,2.47-1.688,4.564-2.626,6.283c-0.938,1.72-2.063,3.267-3.376,4.642l3.423,4.596h8.628v5.861h-12.191
			L417.705,343.639z M400.871,322.163c-7.127,2.501-10.691,6.221-10.691,11.16c0,1.344,0.32,2.634,0.961,3.868
			c0.641,1.235,1.531,2.321,2.673,3.259c1.141,0.938,2.509,1.688,4.103,2.251s3.345,0.844,5.251,0.844
			c2.001,0,3.9-0.375,5.697-1.125c1.798-0.75,3.541-1.97,5.229-3.657L400.871,322.163z M403.497,315.271
			c2.938-1.531,5.118-3.056,6.541-4.572c1.422-1.516,2.134-3.306,2.134-5.369c0-1.688-0.649-2.992-1.946-3.915
			c-1.298-0.922-2.931-1.384-4.899-1.384c-2.064,0-3.736,0.47-5.018,1.407s-1.922,2.298-1.922,4.079c0,1.313,0.429,2.704,1.29,4.174
			C400.535,311.16,401.809,313.02,403.497,315.271z"/>
		<path fill="#FFFFFF" d="M459.766,343.545h7.08V300.5h-7.08v-5.533h24.992c3.751,0,6.822,0.508,9.214,1.523
			c2.392,1.017,4.282,2.314,5.674,3.893c1.391,1.578,2.352,3.337,2.884,5.274c0.531,1.939,0.797,3.814,0.797,5.627
			c0,3.127-0.547,5.697-1.641,7.714c-1.095,2.017-2.619,3.61-4.572,4.782c-1.954,1.173-4.283,1.986-6.986,2.438
			c-2.705,0.454-5.65,0.681-8.84,0.681h-6.846v16.646h7.409v5.486h-22.085V343.545z M474.348,321.976h8.347
			c2.532,0,4.634-0.273,6.308-0.82c1.672-0.547,2.992-1.306,3.961-2.274s1.648-2.11,2.041-3.423
			c0.391-1.313,0.586-2.735,0.586-4.268c0-3.406-0.914-6.041-2.744-7.9c-1.828-1.86-4.447-2.79-7.854-2.79h-10.645V321.976z"/>
		<path fill="#FFFFFF" d="M509.891,315.833c1.688-1.688,3.783-2.985,6.283-3.892c2.502-0.907,5.361-1.36,8.582-1.36
			c2.938,0,5.393,0.352,7.361,1.055c1.97,0.704,3.532,1.634,4.689,2.79c1.156,1.157,1.977,2.485,2.461,3.986
			c0.484,1.5,0.728,3.048,0.728,4.642v20.96h6.752v5.018h-12.989l-0.094-3.892c-1.25,0.906-2.422,1.664-3.516,2.273
			c-1.096,0.61-2.166,1.095-3.213,1.454s-2.103,0.617-3.164,0.773c-1.064,0.156-2.174,0.234-3.33,0.234
			c-1.969,0-3.744-0.305-5.322-0.914s-2.923-1.414-4.032-2.415c-1.11-1-1.954-2.164-2.532-3.493
			c-0.578-1.328-0.867-2.712-0.867-4.149c0-2.345,0.43-4.283,1.289-5.814s2.023-2.751,3.494-3.658
			c1.469-0.906,3.195-1.539,5.181-1.898s4.087-0.539,6.308-0.539c1.5,0,2.984,0.078,4.454,0.234
			c1.469,0.156,3.001,0.391,4.595,0.703v-4.549c0-1.313-0.227-2.43-0.68-3.353c-0.453-0.922-1.078-1.664-1.875-2.228
			c-0.797-0.563-1.729-0.977-2.791-1.242s-2.188-0.398-3.375-0.398c-2.158,0-4.104,0.352-5.838,1.055
			c-1.735,0.704-3.15,1.774-4.244,3.212L509.891,315.833z M533.008,332.525c-1-0.03-2.258-0.164-3.774-0.398
			s-3.118-0.352-4.806-0.352c-1.22,0-2.439,0.087-3.658,0.258c-1.219,0.173-2.305,0.509-3.259,1.009s-1.728,1.219-2.321,2.156
			c-0.594,0.938-0.891,2.174-0.891,3.705c0,0.813,0.156,1.587,0.469,2.32c0.313,0.735,0.773,1.368,1.383,1.899
			c0.61,0.532,1.353,0.954,2.229,1.266c0.875,0.313,1.891,0.47,3.047,0.47c1.032,0,2.079-0.094,3.143-0.282
			c1.063-0.188,2.102-0.46,3.117-0.82c1.016-0.358,1.978-0.797,2.885-1.313c0.906-0.516,1.719-1.103,2.438-1.759V332.525z"/>
		<path fill="#FFFFFF" d="M550.404,336.699h6.236v2.485c0.406,0.781,0.875,1.484,1.407,2.109c0.53,0.626,1.179,1.165,1.946,1.618
			c0.766,0.453,1.664,0.805,2.695,1.055c1.031,0.251,2.234,0.375,3.611,0.375c2.75,0,4.867-0.469,6.354-1.406
			c1.484-0.938,2.227-2.298,2.227-4.079c0-1.001-0.203-1.806-0.609-2.415s-0.977-1.103-1.711-1.478s-1.611-0.663-2.627-0.867
			c-1.016-0.203-2.148-0.398-3.398-0.586c-1.939-0.281-3.869-0.641-5.791-1.079c-1.923-0.437-3.658-1.085-5.205-1.945
			c-1.547-0.859-2.807-2-3.775-3.423s-1.453-3.259-1.453-5.51c0-1.531,0.328-2.97,0.984-4.314c0.656-1.344,1.595-2.509,2.814-3.493
			c1.219-0.984,2.68-1.758,4.384-2.321c1.704-0.563,3.618-0.844,5.744-0.844c1.876,0,3.642,0.336,5.298,1.008
			c1.656,0.673,3.096,1.509,4.314,2.509v-2.813h6.049v12.004h-6.049v-3.142c-2.221-2.688-5.33-4.032-9.331-4.032
			c-2.345,0-4.196,0.462-5.557,1.383c-1.36,0.923-2.04,2.181-2.04,3.775c0,1.031,0.359,1.852,1.079,2.461
			c0.719,0.61,1.665,1.11,2.837,1.501c1.172,0.392,2.516,0.72,4.032,0.984c1.517,0.267,3.056,0.556,4.618,0.868
			s3.104,0.711,4.619,1.195c1.516,0.485,2.861,1.148,4.033,1.993c1.172,0.844,2.117,1.915,2.836,3.212s1.078,2.915,1.078,4.853
			c0,1.72-0.352,3.291-1.055,4.713c-0.703,1.423-1.703,2.634-3,3.634c-1.299,1.001-2.869,1.782-4.713,2.345
			c-1.846,0.563-3.908,0.844-6.189,0.844c-2.157,0-4.088-0.25-5.791-0.75c-1.704-0.5-3.259-1.313-4.666-2.438v2.345h-6.236V336.699z
			"/>
		<path fill="#FFFFFF" d="M586.369,311.284h5.814v-12.098l7.08-1.5v13.598h8.113v5.205h-8.113v18.99c0,1.438,0.023,2.689,0.07,3.752
			s0.195,1.945,0.445,2.649c0.25,0.703,0.641,1.235,1.172,1.594c0.531,0.359,1.297,0.539,2.299,0.539h5.533v5.018h-6.471
			c-2.439,0-4.338-0.359-5.697-1.078s-2.369-1.712-3.025-2.978c-0.656-1.267-1.055-2.751-1.195-4.455
			c-0.141-1.703-0.211-3.556-0.211-5.557v-18.475h-5.814V311.284z"/>
		<path fill="#FFFFFF" d="M614.27,315.833c1.688-1.688,3.781-2.985,6.283-3.892c2.5-0.907,5.361-1.36,8.582-1.36
			c2.938,0,5.391,0.352,7.361,1.055c1.969,0.704,3.531,1.634,4.689,2.79c1.156,1.157,1.977,2.485,2.461,3.986
			c0.484,1.5,0.727,3.048,0.727,4.642v20.96h6.752v5.018h-12.988l-0.094-3.892c-1.25,0.906-2.422,1.664-3.518,2.273
			c-1.094,0.61-2.164,1.095-3.211,1.454s-2.104,0.617-3.166,0.773s-2.172,0.234-3.328,0.234c-1.969,0-3.744-0.305-5.322-0.914
			s-2.924-1.414-4.033-2.415c-1.109-1-1.953-2.164-2.531-3.493c-0.58-1.328-0.867-2.712-0.867-4.149c0-2.345,0.43-4.283,1.289-5.814
			s2.023-2.751,3.492-3.658c1.471-0.906,3.197-1.539,5.182-1.898c1.986-0.359,4.088-0.539,6.307-0.539
			c1.502,0,2.986,0.078,4.455,0.234s3.002,0.391,4.596,0.703v-4.549c0-1.313-0.227-2.43-0.68-3.353
			c-0.453-0.922-1.078-1.664-1.875-2.228c-0.799-0.563-1.729-0.977-2.791-1.242s-2.188-0.398-3.377-0.398
			c-2.156,0-4.102,0.352-5.838,1.055c-1.734,0.704-3.148,1.774-4.242,3.212L614.27,315.833z M637.387,332.525
			c-1-0.03-2.26-0.164-3.775-0.398s-3.117-0.352-4.805-0.352c-1.221,0-2.439,0.087-3.658,0.258c-1.219,0.173-2.307,0.509-3.26,1.009
			s-1.727,1.219-2.32,2.156c-0.594,0.938-0.891,2.174-0.891,3.705c0,0.813,0.156,1.587,0.469,2.32
			c0.313,0.735,0.773,1.368,1.383,1.899c0.609,0.532,1.352,0.954,2.227,1.266c0.875,0.313,1.893,0.47,3.049,0.47
			c1.031,0,2.078-0.094,3.143-0.282c1.061-0.188,2.102-0.46,3.117-0.82c1.016-0.358,1.977-0.797,2.885-1.313
			c0.906-0.516,1.719-1.103,2.438-1.759V332.525z"/>
	</g>
</g>
</svg>
